<svg width="70" height="78" viewBox="0 0 70 78" fill="none" xmlns="http://www.w3.org/2000/svg">
<path fill-rule="evenodd" clip-rule="evenodd" d="M17.7995 18.6639C27.6199 18.6639 35.599 30.3257 35.599 44.4425C35.599 58.5594 27.6199 70.2211 17.7995 70.2211C7.97909 70.2211 0 58.5594 0 44.4425C0 30.3257 7.97909 18.6639 17.7995 18.6639ZM18.4133 67.766C11.048 53.6492 27.6199 40.7599 18.4133 21.119C22.096 49.3527 7.36532 52.4216 18.4133 67.766Z" fill="#54CFF3"/>
<path fill-rule="evenodd" clip-rule="evenodd" d="M36.8267 34.6221C55.8538 31.5532 79.1773 59.1732 66.288 73.29C56.4676 83.7242 38.6681 74.5176 31.3027 65.3109C35.5992 59.7869 38.0543 52.4216 38.0543 46.2838C51.5574 59.1731 48.4885 69.6073 65.0604 71.4487C52.1711 68.3798 51.5574 52.4216 38.0543 43.215C38.0543 40.1461 37.4405 37.0772 36.8267 34.6221Z" fill="#54CFF3"/>
<path fill-rule="evenodd" clip-rule="evenodd" d="M58.9223 2.09194C64.4463 6.38837 63.8325 16.8226 57.081 24.1879C50.9432 32.167 41.1228 34.6221 35.5988 30.3257C30.0748 26.0292 30.6886 15.595 37.4401 8.2297C43.5779 0.250607 53.3983 -2.2045 58.9223 2.09194ZM36.8264 29.7119C39.2815 18.6639 54.0121 19.2777 58.3085 3.31949C47.8743 20.5052 38.0539 15.595 36.8264 29.7119Z" fill="#54CFF3"/>
</svg>
