<svg width="74" height="77" viewBox="0 0 74 77" fill="none" xmlns="http://www.w3.org/2000/svg">
<path d="M4.99217 72.096C4.83217 72.872 4.65617 73.512 4.43217 74.104C4.23217 74.608 3.91217 75.336 3.38417 75.792C3.19217 75.952 2.94417 76.088 2.67217 76.152C2.64017 76.152 2.60017 76.152 2.57617 76.168C2.34417 76.208 2.09617 76.192 1.88017 76.096C1.66417 76 1.46417 75.8 1.30417 75.536C1.04818 75.12 0.936175 74.624 0.976175 74.152C1.04017 73.552 1.30417 73.056 1.76817 72.704C2.32817 72.264 3.20017 72.024 4.12017 72.024C4.39217 72.024 4.66417 72.048 4.94417 72.088L4.99217 72.096Z" fill="#1ABCFE"/>
<path d="M70.1039 29.136H26.2079C24.2559 29.136 22.6719 30.72 22.6719 32.672V46.472C22.6719 48.424 24.2559 50.016 26.2079 50.016H70.1039C72.0559 50.016 73.6479 48.424 73.6479 46.472V32.672C73.6479 30.72 72.0559 29.136 70.1039 29.136ZM41.8399 36.496C40.8559 35.984 39.7439 35.728 38.4959 35.728C37.1199 35.728 36.0159 36.104 35.1759 36.864C34.3279 37.624 33.9119 38.648 33.9119 39.944C33.9119 41.192 34.3039 42.176 35.1039 42.92C35.8959 43.656 36.9679 44.024 38.3119 44.024C39.5999 44.024 40.7679 43.752 41.8399 43.2V45.84C40.7679 46.296 39.3759 46.52 37.6559 46.52C35.4159 46.52 33.6559 45.944 32.3679 44.784C31.0879 43.624 30.4399 42.08 30.4399 40.152C30.4399 38.096 31.1679 36.432 32.6079 35.152C34.0559 33.88 35.9279 33.24 38.2319 33.24C39.6559 33.24 40.8559 33.392 41.8399 33.712V36.496ZM53.2159 44.496C52.9119 44.984 52.4879 45.376 51.9599 45.672C51.4319 45.976 50.8159 46.192 50.1119 46.328C49.4079 46.456 48.6639 46.52 47.8799 46.52C47.0799 46.52 46.3199 46.464 45.5919 46.344C44.8719 46.224 44.2399 46.048 43.7119 45.808V42.936C44.3039 43.376 44.9439 43.704 45.6399 43.92C46.3359 44.136 47.0319 44.248 47.7359 44.248C48.1519 44.248 48.5119 44.216 48.8239 44.152C49.1359 44.08 49.3919 43.992 49.5999 43.872C49.8079 43.76 49.9599 43.624 50.0639 43.464C50.1679 43.304 50.2159 43.136 50.2159 42.944C50.2159 42.696 50.1359 42.472 49.9679 42.272C49.8079 42.08 49.5839 41.896 49.3039 41.728C49.0239 41.56 48.6879 41.4 48.2959 41.248C47.9119 41.088 47.4959 40.936 47.0479 40.768C45.9039 40.352 45.0559 39.84 44.4959 39.24C43.9359 38.64 43.6559 37.904 43.6559 37.056C43.6559 36.384 43.8079 35.808 44.1119 35.328C44.4159 34.848 44.8319 34.456 45.3599 34.144C45.8879 33.832 46.4959 33.6 47.1919 33.456C47.8799 33.312 48.6159 33.24 49.3919 33.24C50.1519 33.24 50.8239 33.28 51.4159 33.36C51.9999 33.44 52.5439 33.56 53.0399 33.728V36.408C52.7919 36.256 52.5279 36.128 52.2399 36.016C51.9519 35.904 51.6559 35.808 51.3439 35.736C51.0399 35.656 50.7359 35.6 50.4319 35.568C50.1359 35.528 49.8479 35.512 49.5759 35.512C49.1999 35.512 48.8639 35.544 48.5519 35.608C48.2479 35.672 47.9919 35.76 47.7839 35.872C47.5679 35.984 47.4079 36.12 47.2879 36.28C47.1759 36.44 47.1199 36.616 47.1199 36.808C47.1199 37.024 47.1839 37.216 47.3119 37.392C47.4399 37.56 47.6239 37.72 47.8639 37.872C48.1039 38.024 48.3919 38.176 48.7279 38.32C49.0639 38.464 49.4479 38.616 49.8799 38.776C50.4639 38.992 50.9919 39.216 51.4559 39.456C51.9199 39.704 52.3199 39.976 52.6559 40.28C52.9839 40.584 53.2399 40.928 53.4159 41.32C53.5919 41.712 53.6799 42.168 53.6799 42.688C53.6799 43.408 53.5279 44.008 53.2159 44.496ZM64.9199 44.496C64.6079 44.984 64.1919 45.376 63.6639 45.672C63.1279 45.976 62.5119 46.192 61.8079 46.328C61.1039 46.456 60.3679 46.52 59.5839 46.52C58.7839 46.52 58.0159 46.464 57.2959 46.344C56.5679 46.224 55.9439 46.048 55.4159 45.808V42.936C56.0079 43.376 56.6479 43.704 57.3439 43.92C58.0319 44.136 58.7359 44.248 59.4399 44.248C59.8559 44.248 60.2159 44.216 60.5279 44.152C60.8319 44.08 61.0959 43.992 61.3039 43.872C61.5039 43.76 61.6639 43.624 61.7679 43.464C61.8639 43.304 61.9199 43.136 61.9199 42.944C61.9199 42.696 61.8319 42.472 61.6719 42.272C61.5119 42.08 61.2879 41.896 61.0079 41.728C60.7199 41.56 60.3919 41.4 59.9999 41.248C59.6159 41.088 59.1999 40.936 58.7439 40.768C57.6079 40.352 56.7519 39.84 56.1919 39.24C55.6319 38.64 55.3519 37.904 55.3519 37.056C55.3519 36.384 55.5039 35.808 55.8079 35.328C56.1199 34.848 56.5359 34.456 57.0639 34.144C57.5839 33.832 58.1999 33.6 58.8879 33.456C59.5839 33.312 60.3199 33.24 61.0879 33.24C61.8559 33.24 62.5279 33.28 63.1119 33.36C63.7039 33.44 64.2479 33.56 64.7439 33.728V36.408C64.4959 36.256 64.2319 36.128 63.9359 36.016C63.6479 35.904 63.3519 35.808 63.0479 35.736C62.7439 35.656 62.4399 35.6 62.1359 35.568C61.8319 35.528 61.5439 35.512 61.2719 35.512C60.9039 35.512 60.5599 35.544 60.2559 35.608C59.9519 35.672 59.6879 35.76 59.4799 35.872C59.2719 35.984 59.1039 36.12 58.9919 36.28C58.8799 36.44 58.8159 36.616 58.8159 36.808C58.8159 37.024 58.8799 37.216 59.0159 37.392C59.1439 37.56 59.3279 37.72 59.5599 37.872C59.7999 38.024 60.0879 38.176 60.4319 38.32C60.7679 38.464 61.1519 38.616 61.5839 38.776C62.1679 38.992 62.6879 39.216 63.1519 39.456C63.6239 39.704 64.0239 39.976 64.3519 40.28C64.6879 40.584 64.9439 40.928 65.1199 41.32C65.2959 41.712 65.3839 42.168 65.3839 42.688C65.3839 43.408 65.2239 44.008 64.9199 44.496Z" fill="#1ABCFE"/>
<path d="M6.84777 5C6.84777 5.104 6.84777 5.216 6.83977 5.328C6.79177 6.2 6.59977 7.024 6.24777 7.864C5.79177 8.976 5.53577 9.336 5.42377 9.456C5.12777 9.44 4.99977 9.32 4.91977 9.208C4.42377 8.496 4.79177 6.456 5.26377 5.016L6.84777 5Z" fill="#1ABCFE"/>
<path d="M61.5599 67.376C61.4559 69.504 61.2639 71.768 60.5599 73.864C60.3439 74.488 60.0319 75.28 59.4559 75.768C59.2399 75.952 58.9519 76.096 58.6559 76.16H4.67993C4.67993 76.152 4.68793 76.152 4.69593 76.144C5.11193 75.6 5.37593 74.992 5.55193 74.528C5.89593 73.64 6.13593 72.656 6.35193 71.328C6.54393 70.144 6.66393 68.864 6.75193 67.32C6.82393 65.928 6.85593 64.432 6.83993 62.744C6.82393 61.216 6.77593 59.624 6.68793 57.88C6.61593 56.32 6.51193 54.72 6.37593 53C6.25593 51.456 6.11993 49.912 5.96793 48.376C5.83193 47.008 5.67993 45.648 5.51993 44.288C5.39993 43.2 5.26393 42.112 5.11993 41.024C5.03193 40.304 4.93593 39.584 4.83193 38.856L4.80793 38.68C4.77593 38.48 4.75193 38.28 4.71993 38.072C0.247932 9.15201 3.12793 2.30401 4.57593 0.704012C4.86393 0.384012 5.10393 0.256012 5.26393 0.200012C6.07993 1.26401 6.59193 2.50401 6.77593 3.80001L4.41593 3.81601L4.27193 4.20801C4.11993 4.62401 2.81593 8.29601 3.94393 9.90401C4.18393 10.232 4.62393 10.632 5.41593 10.656C5.44793 10.664 5.47993 10.664 5.51193 10.664H57.0719C57.0559 12.192 57.1119 13.688 57.1679 15.08L57.2159 16.184C57.3599 20.104 57.7119 24.032 58.1599 27.936H26.2079C23.5999 27.936 21.4719 30.056 21.4719 32.672V46.472C21.4719 49.088 23.5999 51.216 26.2079 51.216H61.0399C61.5599 56.576 61.8319 61.984 61.5599 67.376Z" fill="#1ABCFE"/>
<path d="M62.5521 8.144C62.1681 8.944 61.3281 9.464 60.4081 9.464H6.8321C7.0001 9.144 7.1841 8.744 7.3841 8.264C7.7601 7.368 7.9761 6.4 8.0401 5.4C8.1441 3.56 7.6721 1.744 6.7041 0.167999H60.8401C61.0001 0.167999 61.1521 0.191999 61.2961 0.223999C61.7841 0.351999 62.2161 0.671999 62.4641 1.128C63.3041 2.664 64.0081 5.128 62.5521 8.144Z" fill="#1ABCFE"/>
</svg>
