<svg width="72" height="72" viewBox="0 0 72 72" fill="none" xmlns="http://www.w3.org/2000/svg">
<path d="M12 46H16V52H20V36H16V42H12V36H8V52H12V46Z" fill="#F2B03E"/>
<path d="M40 42.472L44 50.472L48 42.472V52H52V36H46.764L44 41.528L41.236 36H36V52H40V42.472Z" fill="#F2B03E"/>
<path d="M64 48H58V36H54V52H64V48Z" fill="#F2B03E"/>
<path d="M64 20L44 0H16C11.5816 0 8 3.5816 8 8V28H0V60H8V64C8 68.4184 11.5816 72 16 72H56C60.4184 72 64 68.4184 64 64V60H72V28H64V20ZM42 6.4856L57.5144 22H42V6.4856ZM68 32V56H4V32H68Z" fill="#F2B03E"/>
<path d="M26 52H30V40H34V36H22V40H26V52Z" fill="#F2B03E"/>
</svg>
