<svg width="53" height="53" viewBox="0 0 53 53" fill="none" xmlns="http://www.w3.org/2000/svg">
<path d="M26.4799 0.569122C12.0761 0.569122 0.408203 12.237 0.408203 26.6408C0.408203 41.0446 12.0761 52.7125 26.4799 52.7125C40.8837 52.7125 52.5516 41.0446 52.5516 26.6408C52.5113 12.237 40.8435 0.569122 26.4799 0.569122ZM47.7235 28.2099H45.1887C44.4243 28.2099 43.7001 28.0892 43.0966 27.8881C42.4528 36.4982 35.2509 43.2977 26.4397 43.2977C17.226 43.2977 9.74251 35.8142 9.74251 26.6006C9.74251 17.387 17.226 9.90343 26.4397 9.90343C35.0498 9.90343 42.131 16.4214 43.0563 24.79C43.6598 24.5889 44.3841 24.4682 45.1887 24.4682H47.7235C49.7754 24.4682 51.425 25.2729 51.425 26.2787V26.3994C51.425 27.4053 49.7754 28.2099 47.7235 28.2099Z" fill="#020203"/>
<path d="M26.4798 39.395C33.5237 39.395 39.234 33.6848 39.234 26.6408C39.234 19.5969 33.5237 13.8866 26.4798 13.8866C19.4358 13.8866 13.7256 19.5969 13.7256 26.6408C13.7256 33.6848 19.4358 39.395 26.4798 39.395Z" fill="#020203"/>
<path d="M26.4799 40.7227C18.7147 40.7227 12.3979 34.406 12.3979 26.6408C12.3979 18.8756 18.7147 12.5589 26.4799 12.5589C34.2451 12.5589 40.5618 18.8756 40.5618 26.6408C40.5618 34.406 34.2451 40.7227 26.4799 40.7227ZM26.4799 13.2026C19.0768 13.2026 13.0417 19.2377 13.0417 26.6408C13.0417 34.0439 19.0768 40.079 26.4799 40.079C33.883 40.079 39.9181 34.0439 39.9181 26.6408C39.9181 19.2377 33.883 13.2026 26.4799 13.2026Z" fill="#020203"/>
</svg>
