<svg width="67" height="60" viewBox="0 0 67 60" fill="none" xmlns="http://www.w3.org/2000/svg">
<path d="M39.9601 0.0800011C38.3601 -0.239999 36.7601 0.720001 36.3601 2.4L24.3601 56.4C24.0401 58 25.0801 59.6 26.6801 59.92C28.2801 60.24 29.8001 59.28 30.2001 57.68L42.2001 3.68C42.6001 2 41.5601 0.400001 39.9601 0.0800011Z" fill="#E94969"/>
<path d="M17.3998 15.84C16.1998 14.64 14.3598 14.64 13.1598 15.84L1.15977 27.84C-0.0402344 29.04 -0.0402344 30.88 1.15977 32.08L13.1598 44.08C14.3598 45.2 16.2798 45.12 17.3998 43.92C18.4398 42.8 18.4398 40.96 17.3998 39.84L7.55977 30L17.4798 20.16C18.5998 18.96 18.5998 17.04 17.3998 15.84C17.4798 15.92 17.4798 15.92 17.3998 15.84Z" fill="#E94969"/>
<path d="M65.3999 27.84L53.3998 15.84C52.2798 14.64 50.3598 14.56 49.1598 15.68C47.9598 16.8 47.8798 18.72 48.9998 19.92C49.0798 20 49.0798 20 49.1598 20.08L59.0798 30L49.1598 39.84C48.0398 41.04 48.1198 42.96 49.3198 44.08C50.4398 45.12 52.2798 45.12 53.3998 44.08L65.3999 32.08C66.5998 30.96 66.5998 29.04 65.3999 27.84C65.4799 27.84 65.4799 27.84 65.3999 27.84Z" fill="#E94969"/>
</svg>
