<svg width="71" height="61" viewBox="0 0 71 61" fill="none" xmlns="http://www.w3.org/2000/svg">
<path d="M67.1404 0.03125H3.85916C2.89562 0.0651919 1.98475 0.47943 1.32588 1.18332C0.667018 1.88721 0.313803 2.82343 0.343532 3.78711V43.1562C0.315381 44.1189 0.669302 45.0536 1.328 45.7563C1.9867 46.4589 2.89666 46.8723 3.85916 46.9062H29.6404V51.5938H21.4373C21.1265 51.5938 20.8284 51.7172 20.6086 51.937C20.3889 52.1568 20.2654 52.4548 20.2654 52.7656V58.625H17.9217V60.9688H53.0779V58.625H50.7342V52.7656C50.7342 52.4548 50.6107 52.1568 50.3909 51.937C50.1712 51.7172 49.8731 51.5938 49.5623 51.5938H41.3592V46.9062H67.1404C68.1029 46.8723 69.0129 46.4589 69.6716 45.7563C70.3303 45.0536 70.6842 44.1189 70.656 43.1562V3.78711C70.6858 2.82343 70.3326 1.88721 69.6737 1.18332C69.0148 0.47943 68.104 0.0651919 67.1404 0.03125ZM3.85916 2.375H67.1404C67.4816 2.41032 67.7954 2.57795 68.0145 2.84193C68.2336 3.10591 68.3405 3.44523 68.3123 3.78711V37.5312H2.68728V3.78711C2.65909 3.44523 2.766 3.10591 2.98507 2.84193C3.20414 2.57795 3.51794 2.41032 3.85916 2.375ZM48.3904 58.625H22.6092V53.9375H48.3904V58.625ZM39.0154 51.5938H31.9842V46.9062H39.0154V51.5938ZM67.1404 44.5625H3.85916C3.51903 44.5272 3.20617 44.3604 2.98725 44.0977C2.76834 43.835 2.6607 43.4972 2.68728 43.1562V39.875H68.3123V43.1562C68.3389 43.4972 68.2312 43.835 68.0123 44.0977C67.7934 44.3604 67.4805 44.5272 67.1404 44.5625Z" fill="#B8DFB2"/>
<path d="M64.7969 41.0469H62.4531V43.3906H64.7969V41.0469Z" fill="#B8DFB2"/>
<path d="M37.8438 23.4688H40.7992C40.9231 23.8168 41.0647 24.1582 41.2234 24.4918L39.1328 26.5824C38.9131 26.8022 38.7897 27.1002 38.7897 27.4109C38.7897 27.7217 38.9131 28.0197 39.1328 28.2395L42.448 31.5547C42.6678 31.7744 42.9658 31.8978 43.2766 31.8978C43.5873 31.8978 43.8853 31.7744 44.1051 31.5547L46.1957 29.4652C46.5293 29.624 46.8707 29.7655 47.2188 29.8895V32.8438C47.2188 33.1546 47.3422 33.4526 47.562 33.6724C47.7818 33.8922 48.0798 34.0156 48.3906 34.0156H53.0781C53.3889 34.0156 53.687 33.8922 53.9068 33.6724C54.1265 33.4526 54.25 33.1546 54.25 32.8438V29.8883C54.598 29.7644 54.9395 29.6228 55.273 29.4641L57.3637 31.5547C57.5834 31.7744 57.8814 31.8978 58.1922 31.8978C58.5029 31.8978 58.8009 31.7744 59.0207 31.5547L62.3359 28.2395C62.5556 28.0197 62.679 27.7217 62.679 27.4109C62.679 27.1002 62.5556 26.8022 62.3359 26.5824L60.2465 24.4918C60.4048 24.1582 60.546 23.8167 60.6695 23.4688H63.625C63.9358 23.4688 64.2339 23.3453 64.4536 23.1255C64.6734 22.9057 64.7969 22.6077 64.7969 22.2969V17.6094C64.7969 17.2986 64.6734 17.0005 64.4536 16.7807C64.2339 16.561 63.9358 16.4375 63.625 16.4375H60.6695C60.5456 16.0895 60.404 15.748 60.2453 15.4145L62.3359 13.3238C62.5556 13.1041 62.679 12.8061 62.679 12.4953C62.679 12.1846 62.5556 11.8866 62.3359 11.6668L59.0207 8.35156C58.8009 8.13187 58.5029 8.00845 58.1922 8.00845C57.8814 8.00845 57.5834 8.13187 57.3637 8.35156L55.273 10.441C54.9394 10.2827 54.598 10.1415 54.25 10.018V7.0625C54.25 6.7517 54.1265 6.45363 53.9068 6.23386C53.687 6.01409 53.3889 5.89062 53.0781 5.89062H48.3906C48.0798 5.89062 47.7818 6.01409 47.562 6.23386C47.3422 6.45363 47.2188 6.7517 47.2188 7.0625V10.018C46.8707 10.1419 46.5293 10.2835 46.1957 10.4422L44.1051 8.35156C43.8853 8.13187 43.5873 8.00845 43.2766 8.00845C42.9658 8.00845 42.6678 8.13187 42.448 8.35156L39.1328 11.6668C38.9131 11.8866 38.7897 12.1846 38.7897 12.4953C38.7897 12.8061 38.9131 13.1041 39.1328 13.3238L41.2223 15.4145C41.0635 15.748 40.922 16.0895 40.798 16.4375H37.8438C37.5329 16.4375 37.2349 16.561 37.0151 16.7807C36.7953 17.0005 36.6719 17.2986 36.6719 17.6094V22.2969C36.6719 22.6077 36.7953 22.9057 37.0151 23.1255C37.2349 23.3453 37.5329 23.4688 37.8438 23.4688ZM39.0156 18.7812H41.6664C41.9262 18.7812 42.1785 18.6948 42.3839 18.5357C42.5892 18.3766 42.7358 18.1538 42.8008 17.9023C42.9921 17.162 43.2859 16.452 43.6738 15.793C43.8061 15.5691 43.8602 15.3076 43.8275 15.0496C43.7948 14.7916 43.6773 14.5518 43.4934 14.368L41.6184 12.493L43.2754 10.8359L45.1504 12.7109C45.3342 12.8949 45.574 13.0124 45.832 13.0451C46.09 13.0778 46.3515 13.0237 46.5754 12.8914C47.2344 12.5035 47.9444 12.2096 48.6848 12.0184C48.9363 11.9534 49.1591 11.8068 49.3182 11.6014C49.4772 11.3961 49.5636 11.1437 49.5637 10.884V8.23438H51.9074V10.8852C51.9075 11.1449 51.9938 11.3973 52.1529 11.6026C52.312 11.8079 52.5348 11.9546 52.7863 12.0195C53.5267 12.2108 54.2367 12.5047 54.8957 12.8926C55.1196 13.0249 55.3811 13.0789 55.6391 13.0463C55.8971 13.0136 56.1369 12.896 56.3207 12.7121L58.1957 10.8371L59.8527 12.4941L57.9777 14.3691C57.7938 14.553 57.6763 14.7928 57.6436 15.0507C57.6109 15.3087 57.665 15.5703 57.7973 15.7941C58.1852 16.4531 58.479 17.1631 58.6703 17.9035C58.7352 18.155 58.8819 18.3778 59.0872 18.5369C59.2926 18.696 59.5449 18.7824 59.8047 18.7824H62.4531V21.1262H59.8023C59.5426 21.1262 59.2902 21.2126 59.0849 21.3717C58.8796 21.5308 58.7329 21.7536 58.668 22.0051C58.4767 22.7455 58.1828 23.4555 57.7949 24.1145C57.6626 24.3383 57.6086 24.5999 57.6412 24.8578C57.6739 25.1158 57.7915 25.3556 57.9754 25.5395L59.8504 27.4145L58.1934 29.0715L56.3184 27.1965C56.1345 27.0126 55.8947 26.895 55.6368 26.8623C55.3788 26.8297 55.1172 26.8837 54.8934 27.016C54.2344 27.4039 53.5244 27.6978 52.784 27.8891C52.5325 27.954 52.3097 28.1007 52.1506 28.306C51.9915 28.5113 51.9051 28.7637 51.9051 29.0234V31.6719H49.5625V29.0211C49.5624 28.7613 49.4761 28.509 49.317 28.3036C49.1579 28.0983 48.9351 27.9517 48.6836 27.8867C47.9432 27.6954 47.2332 27.4016 46.5742 27.0137C46.3503 26.8814 46.0888 26.8273 45.8308 26.86C45.5728 26.8927 45.3331 27.0102 45.1492 27.1941L43.2742 29.0691L41.6172 27.4121L43.4922 25.5371C43.6761 25.3533 43.7937 25.1135 43.8263 24.8555C43.859 24.5975 43.8049 24.336 43.6727 24.1121C43.2847 23.4531 42.9909 22.7431 42.7996 22.0027C42.7347 21.7512 42.588 21.5284 42.3827 21.3693C42.1774 21.2103 41.925 21.1239 41.6652 21.1238H39.0156V18.7812Z" fill="#B8DFB2"/>
<path d="M50.7344 25.8125C51.8932 25.8125 53.0261 25.4689 53.9897 24.825C54.9532 24.1812 55.7042 23.2661 56.1477 22.1954C56.5912 21.1248 56.7072 19.9466 56.4812 18.81C56.2551 17.6734 55.697 16.6294 54.8776 15.8099C54.0581 14.9905 53.0141 14.4324 51.8775 14.2063C50.7409 13.9803 49.5627 14.0963 48.4921 14.5398C47.4214 14.9833 46.5063 15.7343 45.8625 16.6978C45.2186 17.6614 44.875 18.7943 44.875 19.9531C44.8769 21.5066 45.4948 22.9958 46.5932 24.0943C47.6917 25.1927 49.1809 25.8106 50.7344 25.8125ZM50.7344 16.4375C51.4297 16.4375 52.1094 16.6437 52.6875 17.03C53.2657 17.4163 53.7163 17.9654 53.9824 18.6078C54.2485 19.2502 54.3181 19.957 54.1824 20.639C54.0468 21.321 53.712 21.9474 53.2203 22.4391C52.7286 22.9307 52.1022 23.2656 51.4202 23.4012C50.7383 23.5369 50.0314 23.4672 49.389 23.2011C48.7466 22.9351 48.1975 22.4844 47.8112 21.9063C47.4249 21.3282 47.2187 20.6485 47.2187 19.9531C47.2187 19.0207 47.5891 18.1265 48.2485 17.4672C48.9078 16.8079 49.802 16.4375 50.7344 16.4375Z" fill="#B8DFB2"/>
<path d="M8.88998 12.5785L10.547 10.9215L9.03178 9.40624L10.547 7.89101L8.88998 6.23398L6.54623 8.57773C6.32654 8.79749 6.20312 9.09551 6.20312 9.40624C6.20312 9.71698 6.32654 10.015 6.54623 10.2348L8.88998 12.5785Z" fill="#B8DFB2"/>
<path d="M15.8124 6.35935L12.2959 11.0462L14.1706 12.4528L17.6872 7.76597L15.8124 6.35935Z" fill="#B8DFB2"/>
<path d="M21.094 12.5785L23.4378 10.2348C23.6575 10.015 23.7809 9.71698 23.7809 9.40624C23.7809 9.09551 23.6575 8.79749 23.4378 8.57773L21.094 6.23398L19.437 7.89101L20.9522 9.40624L19.437 10.9215L21.094 12.5785Z" fill="#B8DFB2"/>
<path d="M28.4688 10.5781H26.125V12.9219H28.4688V10.5781Z" fill="#B8DFB2"/>
<path d="M13.2344 15.2656H8.54688V17.6094H13.2344V15.2656Z" fill="#B8DFB2"/>
<path d="M17.9219 15.2656H15.5781V17.6094H17.9219V15.2656Z" fill="#B8DFB2"/>
<path d="M27.2969 15.2656H20.2656V17.6094H27.2969V15.2656Z" fill="#B8DFB2"/>
<path d="M31.9844 15.2656H29.6406V17.6094H31.9844V15.2656Z" fill="#B8DFB2"/>
<path d="M13.2344 19.9531H10.8906V22.2969H13.2344V19.9531Z" fill="#B8DFB2"/>
<path d="M20.2656 19.9531H15.5781V22.2969H20.2656V19.9531Z" fill="#B8DFB2"/>
<path d="M24.9531 19.9531H22.6094V22.2969H24.9531V19.9531Z" fill="#B8DFB2"/>
<path d="M31.9844 19.9531H27.2969V22.2969H31.9844V19.9531Z" fill="#B8DFB2"/>
<path d="M13.2344 26.9844H8.54688V29.3281H13.2344V26.9844Z" fill="#B8DFB2"/>
<path d="M17.9219 26.9844H15.5781V29.3281H17.9219V26.9844Z" fill="#B8DFB2"/>
<path d="M27.2969 26.9844H20.2656V29.3281H27.2969V26.9844Z" fill="#B8DFB2"/>
<path d="M31.9844 26.9844H29.6406V29.3281H31.9844V26.9844Z" fill="#B8DFB2"/>
<path d="M13.2344 31.6719H10.8906V34.0156H13.2344V31.6719Z" fill="#B8DFB2"/>
<path d="M20.2656 31.6719H15.5781V34.0156H20.2656V31.6719Z" fill="#B8DFB2"/>
<path d="M24.9531 31.6719H22.6094V34.0156H24.9531V31.6719Z" fill="#B8DFB2"/>
<path d="M31.9844 31.6719H27.2969V34.0156H31.9844V31.6719Z" fill="#B8DFB2"/>
</svg>
